<svg xmlns="http://www.w3.org/2000/svg" version="1.1" xmlns:xlink="http://www.w3.org/1999/xlink" xmlns:svgjs="http://svgjs.com/svgjs" width="512" height="512" x="0" y="0" viewBox="0 0 64 64" style="enable-background:new 0 0 512 512" xml:space="preserve" class=""><g><g xmlns="http://www.w3.org/2000/svg" id="Money_Transfer" data-name="Money Transfer"><rect x="13" y="51" width="6" height="2" fill="#000000" data-original="#000000" class=""></rect><path d="M4,48V14.039c3.4-.018,15.289,0,24,.012V17h2V11a3,3,0,0,0-3-3H5a3,3,0,0,0-3,3V53a3,3,0,0,0,3,3H27a3,3,0,0,0,3-3V48ZM5,10H27a1,1,0,0,1,1,1v1.051c-15.6-.031-21.614-.041-24,.035V11A1,1,0,0,1,5,10ZM27,54H5a1,1,0,0,1-1-1V50H28v3A1,1,0,0,1,27,54Z" fill="#000000" data-original="#000000" class=""></path><path d="M59,8H37a3,3,0,0,0-3,3v4h2v-.961c3.4-.018,15.289,0,24,.012V48H36V47H34v6a3,3,0,0,0,3,3H59a3,3,0,0,0,3-3V11A3,3,0,0,0,59,8ZM36,12.086V11a1,1,0,0,1,1-1H59a1,1,0,0,1,1,1v1.051C44.4,12.02,38.386,12.01,36,12.086ZM59,54H37a1,1,0,0,1-1-1V50H60v3A1,1,0,0,1,59,54Z" fill="#000000" data-original="#000000" class=""></path><rect x="45" y="51" width="6" height="2" fill="#000000" data-original="#000000" class=""></rect><path d="M35,34a3,3,0,0,0-3-3,1,1,0,1,1,1-1h2a3,3,0,0,0-2-2.816V26H31v1.184A2.993,2.993,0,0,0,32,33a1,1,0,1,1-1,1H29a3,3,0,0,0,2,2.816V38h2V36.816A3,3,0,0,0,35,34Z" fill="#000000" data-original="#000000" class=""></path><path d="M33.475,23.85,35.113,22.7l-1.052-1.5a11,11,0,0,1,.69,21.453l.5,1.938a13,13,0,0,0-.5-25.293l1.1-.773L34.7,16.887l-3.276,2.294a1,1,0,0,0-.246,1.392Z" fill="#000000" data-original="#000000" class=""></path><path d="M30.525,40.15,28.887,41.3l1.052,1.5a11,11,0,0,1-.69-21.453l-.5-1.938a13,13,0,0,0,.5,25.293l-1.1.773L29.3,47.113l3.276-2.294a1,1,0,0,0,.246-1.392Z" fill="#000000" data-original="#000000" class=""></path><rect x="15" y="31" width="2" height="2" fill="#000000" data-original="#000000" class=""></rect><rect x="11" y="31" width="2" height="2" fill="#000000" data-original="#000000" class=""></rect><rect x="47" y="31" width="2" height="2" fill="#000000" data-original="#000000" class=""></rect><rect x="51" y="31" width="2" height="2" fill="#000000" data-original="#000000" class=""></rect></g></g></svg>